<?xml version="1.0" encoding="UTF-8"?>
<svg width="20px" height="15px" viewBox="0 0 20 15" version="1.1" xmlns="http://www.w3.org/2000/svg" xmlns:xlink="http://www.w3.org/1999/xlink">
    <!-- Generator: Sketch 44.1 (41455) - http://www.bohemiancoding.com/sketch -->
    <title>book</title>
    <desc>Created with Sketch.</desc>
    <defs></defs>
    <g id="Page-1" stroke="none" stroke-width="1" fill="none" fill-rule="evenodd">
        <g id="book" fill-rule="nonzero" fill="#FFFFFF">
            <path d="M3.05939394,0.00323788546 C3.05885522,0.00323788546 3.05824916,0.00323788546 3.05771044,0.00323788546 C2.86855219,0.00323788546 2.69063973,0.0755947137 2.5562963,0.207092511 C2.42047138,0.340044053 2.34565657,0.517070485 2.34565657,0.705528634 L2.34565657,11.2362555 C2.34565657,11.6224229 2.66707071,11.9373568 3.06222222,11.938348 C4.72808081,11.9422467 7.51905724,12.2829515 9.44444444,14.2601101 L9.44444444,3.23940529 C9.44444444,3.1085022 9.41037037,2.98552863 9.34606061,2.88376652 C7.76579125,0.386497797 4.72902357,0.00707048458 3.05939394,0.00323788546 Z" id="Shape"></path>
            <path d="M17.6543434,11.2362555 L17.6543434,0.705462555 C17.6543434,0.517004405 17.5795286,0.339977974 17.4437037,0.207026432 C17.3093603,0.0755286344 17.1313131,0.00317180617 16.9423569,0.00317180617 C16.9417508,0.00317180617 16.9411448,0.00317180617 16.9406061,0.00317180617 C15.2710438,0.00707048458 12.2342761,0.386497797 10.6539394,2.88376652 C10.5896296,2.98552863 10.5556229,3.1085022 10.5556229,3.23940529 L10.5556229,14.2600441 C12.4810101,12.2828855 15.2719865,11.9421806 16.9378451,11.9382819 C17.3329293,11.9372907 17.6543434,11.6223568 17.6543434,11.2362555 Z" id="Shape"></path>
            <path d="M19.2843771,2.43178414 L18.7654545,2.43178414 L18.7654545,11.2362555 C18.7654545,12.2222247 17.9468013,13.0262115 16.9404714,13.0286564 C15.5274747,13.0319604 13.1976431,13.3030837 11.5476094,14.8355286 C14.4013468,14.1498899 17.409697,14.5955947 19.1241751,14.9789868 C19.3382492,15.0268282 19.5594613,14.9774009 19.7309764,14.8432599 C19.9018855,14.7094493 19.9999327,14.5094273 19.9999327,14.2947357 L19.9999327,3.13394273 C20,2.74678414 19.6789226,2.43178414 19.2843771,2.43178414 Z" id="Shape"></path>
            <path d="M1.23447811,11.2362555 L1.23447811,2.43178414 L0.715555556,2.43178414 C0.321077441,2.43178414 0,2.74678414 0,3.13394273 L0,14.2945374 C0,14.5092952 0.098047138,14.7092511 0.268956229,14.8430617 C0.4403367,14.9771366 0.661346801,15.0267621 0.875757576,14.9787885 C2.59023569,14.5953304 5.5986532,14.1496916 8.45225589,14.8353304 C6.80228956,13.3029515 4.47245791,13.0318943 3.05946128,13.0285903 C2.05319865,13.0262115 1.23447811,12.2222247 1.23447811,11.2362555 Z" id="Shape"></path>
        </g>
    </g>
</svg>