<?xml version="1.0" encoding="UTF-8"?>
<svg width="13px" height="12px" viewBox="0 0 13 12" version="1.1" xmlns="http://www.w3.org/2000/svg" xmlns:xlink="http://www.w3.org/1999/xlink">
    <!-- Generator: Sketch 48.1 (47250) - http://www.bohemiancoding.com/sketch -->
    <title>like</title>
    <desc>Created with Sketch.</desc>
    <defs></defs>
    <g id="Page-1" stroke="none" stroke-width="1" fill="none" fill-rule="evenodd">
        <g id="like" fill="#000000" fill-rule="nonzero">
            <path d="M12.0576765,6.66087472 C12.3438178,6.33312984 12.4869431,5.94554897 12.4869431,5.49805011 C12.4869431,5.0922369 12.3384601,4.74109339 12.0425057,4.44437358 C11.7459499,4.14768109 11.3948064,3.99941686 10.9889932,3.99941686 L8.82729841,3.99941686 C8.84807289,3.92659681 8.86890205,3.86416401 8.88967654,3.81214579 C8.91025968,3.76012756 8.93917995,3.70283371 8.9754533,3.64040091 C9.01175399,3.57794077 9.03785877,3.53108884 9.0534123,3.49992711 C9.14703417,3.32312528 9.21870615,3.17734852 9.26818223,3.0629795 C9.31757631,2.9483918 9.36675171,2.79236446 9.41633713,2.59465148 C9.46584055,2.39704784 9.49044191,2.19925285 9.49044191,2.00153986 C9.49044191,1.87672893 9.4889385,1.77517995 9.48647836,1.69719362 C9.48404556,1.61915262 9.47078815,1.50205011 9.44758087,1.34594077 C9.42401822,1.18991344 9.39274715,1.05982688 9.35382232,0.955817768 C9.31473349,0.851781321 9.25224601,0.734624146 9.16655125,0.604646925 C9.08066515,0.47442369 8.97665604,0.369211845 8.8542779,0.288519362 C8.73192711,0.207881549 8.57589977,0.140255125 8.38600456,0.085667426 C8.195918,0.0310250569 7.98142141,0.00371753986 7.74194077,0.00371753986 C7.60668793,0.00371753986 7.4897221,0.053166287 7.39076993,0.152036446 C7.28673349,0.256072893 7.19814123,0.386132118 7.12537585,0.542159453 C7.05250114,0.698268793 7.00174032,0.833548975 6.97309339,0.94805467 C6.9444738,1.06250569 6.911918,1.22123918 6.87564465,1.42409112 C6.82865604,1.64271526 6.79369476,1.8 6.77013212,1.89624601 C6.74676082,1.99249203 6.70111162,2.11864237 6.63353986,2.27469704 C6.56583144,2.43086105 6.48527563,2.55564465 6.39159909,2.64934852 C6.21993622,2.82101139 5.95722096,3.13320273 5.60334396,3.58581321 C5.34833713,3.91875171 5.08562187,4.23351253 4.81508884,4.53009567 C4.54450114,4.82673349 4.34681549,4.98019134 4.22197722,4.99060592 C4.092,5.00099317 3.98011845,5.05432346 3.88644191,5.15062415 C3.79276538,5.24687016 3.74594077,5.36006378 3.74594077,5.49009567 L3.74594077,10.4926469 C3.74594077,10.6279271 3.79533485,10.7436355 3.89420501,10.8398815 C3.9930205,10.9362369 4.11009567,10.9869431 4.24537585,10.992164 C4.4274533,10.997385 4.83848747,11.1117267 5.47847836,11.3356538 C5.87904328,11.4707153 6.19246469,11.573631 6.41879727,11.6437722 C6.64507517,11.7139134 6.96136674,11.7894123 7.36687927,11.8701595 C7.77277449,11.9507699 8.14731663,11.9911982 8.49061503,11.9911982 L8.62332574,11.9911982 L9.21649203,11.9911982 L9.49738497,11.9911982 C10.1895308,11.9808109 10.7017859,11.7778223 11.0348884,11.3825057 C11.3365558,11.0234624 11.4639636,10.5525923 11.417303,9.96986788 C11.6201822,9.77737585 11.7607654,9.53294761 11.838697,9.23630979 C11.9270159,8.91911617 11.9270159,8.61471526 11.838697,8.32340774 C12.0779863,8.00602278 12.1898679,7.64963098 12.1741503,7.25420501 C12.1748064,7.08754442 12.1358815,6.8898861 12.0576765,6.66087472 Z" id="Shape"></path>
            <path d="M2.74715262,4.99856036 L0.499571754,4.99856036 C0.364209567,4.99856036 0.247134396,5.04800911 0.148291572,5.14687927 C0.0494487472,5.24569476 0,5.36276993 0,5.49805011 L0,10.4930023 C0,10.6280911 0.0494487472,10.745221 0.148318907,10.8441731 C0.247243736,10.9428793 0.364318907,10.9923554 0.499599089,10.9923554 L2.74715262,10.9923554 C2.88240547,10.9923554 2.99942597,10.9428793 3.09832346,10.8441731 C3.19716629,10.745221 3.2465877,10.6281185 3.2465877,10.4930023 L3.2465877,5.49805011 C3.2465877,5.36276993 3.19713895,5.2457221 3.09832346,5.14687927 C2.9994533,5.04798178 2.8824328,4.99856036 2.74715262,4.99856036 Z M1.84961276,9.84896583 C1.75076993,9.94521185 1.6337221,9.99332118 1.49844191,9.99332118 C1.35794077,9.99332118 1.23955353,9.94521185 1.14336219,9.84896583 C1.04711617,9.75271982 0.999006834,9.63438724 0.999006834,9.4938861 C0.999006834,9.35863326 1.04708884,9.24153075 1.14336219,9.14271526 C1.23958087,9.0438451 1.35794077,8.99434169 1.49844191,8.99434169 C1.6337221,8.99434169 1.75076993,9.0438451 1.84961276,9.14271526 C1.94848292,9.24150342 1.99793166,9.35860592 1.99793166,9.4938861 C1.99793166,9.63438724 1.94859226,9.75269248 1.84961276,9.84896583 Z" id="Shape"></path>
        </g>
    </g>
</svg>