<?xml version="1.0" encoding="UTF-8"?>
<svg width="14px" height="15px" viewBox="0 0 14 15" version="1.1" xmlns="http://www.w3.org/2000/svg" xmlns:xlink="http://www.w3.org/1999/xlink">
    <!-- Generator: Sketch 44.1 (41455) - http://www.bohemiancoding.com/sketch -->
    <title>shoe (1)</title>
    <desc>Created with Sketch.</desc>
    <defs></defs>
    <g id="Page-1" stroke="none" stroke-width="1" fill="none" fill-rule="evenodd">
        <g id="shoe-(1)" fill-rule="nonzero" fill="#FFFFFF">
            <path d="M2.78068293,12.6384343 L13.1679512,5.01878788 L9.7417561,0.0525252525 C9.70931707,0.00550505051 9.65014634,-0.0125252525 9.5982439,0.00898989899 L4.84970732,1.97555556 C4.80370732,1.99459596 4.77360976,2.04070707 4.77360976,2.0919697 L4.77360976,3.45959596 L6.69565854,5.49484848 C6.88268293,5.69292929 6.87926829,6.01045455 6.68795122,6.20414141 C6.59370732,6.29949495 6.47146341,6.34707071 6.34931707,6.34707071 C6.22346341,6.34707071 6.09780488,6.29666667 6.00287805,6.19616162 L4.77360976,4.89449495 L4.77360976,5.71813131 C4.77360976,5.82363636 4.75917073,5.92914141 4.73204878,6.0309596 L6.28614634,7.82722222 C6.46468293,8.03353535 6.44785366,8.35060606 6.24853659,8.53540404 C6.15609756,8.62116162 6.04058537,8.66338384 5.92546341,8.66338384 C5.79253659,8.66338384 5.66014634,8.60707071 5.5644878,8.49646465 L4.28180488,7.01388889 L3.9157561,7.77186869 L5.01156098,9.185 C5.17907317,9.4010101 5.14570732,9.71666667 4.93707317,9.89010101 C4.84765854,9.96444444 4.74053659,10.0005556 4.63409756,10.0005556 C4.49229268,10.0005556 4.3517561,9.93641414 4.25604878,9.8130303 L3.43887805,8.75924242 L3.10097561,9.45888889 C2.97746341,9.71479798 2.76502439,9.90555556 2.50292683,9.9960101 L0.855609756,10.5644949 C0.358829268,10.7359596 0.0250243902,11.2155051 0.0250243902,11.7576768 L0.0250243902,12.6384848 L2.78068293,12.6384848 L2.78068293,12.6384343 Z" id="Shape"></path>
            <path d="M13.6466341,5.71262626 L3.14985366,13.4126263 C3.0802439,13.4636869 2.99707317,13.4911111 2.91180488,13.4911111 L0.0250731707,13.4911111 L0.0250731707,13.7671212 C0.0250731707,14.4469192 0.559219512,15 1.21585366,15 L3.48995122,15 C3.81341463,15 4.12258537,14.8959091 4.38414634,14.6989899 L13.3601463,7.94020202 C14.0218049,7.4419697 14.1732195,6.47590909 13.6976585,5.78661616 L13.6466341,5.71262626 Z" id="Shape"></path>
        </g>
    </g>
</svg>