<?xml version="1.0" encoding="UTF-8"?>
<svg width="150px" height="140px" viewBox="0 0 150 140" version="1.1" xmlns="http://www.w3.org/2000/svg" xmlns:xlink="http://www.w3.org/1999/xlink">
    <!-- Generator: Sketch 51 (57462) - http://www.bohemiancoding.com/sketch -->
    <title>gift</title>
    <desc>Created with Sketch.</desc>
    <defs></defs>
    <g id="Page-1" stroke="none" stroke-width="1" fill="none" fill-rule="evenodd">
        <g id="gift" fill-rule="nonzero">
            <path d="M137.449805,61.7332031 L12.5501953,61.7332031 C11.2417969,61.7332031 10.1818359,62.79375 10.1818359,64.1015625 L10.1818359,137.587793 C10.1818359,138.895898 11.2417969,139.956152 12.5501953,139.956152 L137.450098,139.956152 C138.758496,139.956152 139.818457,138.895605 139.818457,137.587793 L139.818457,64.1018555 C139.818164,62.793457 138.75791,61.7332031 137.449805,61.7332031 Z" id="Shape" fill="#F7434C"></path>
            <path d="M137.449805,61.7332031 L12.5501953,61.7332031 C11.2417969,61.7332031 10.1818359,62.79375 10.1818359,64.1015625 L10.1818359,73.575293 L139.818457,73.575293 L139.818457,64.1015625 C139.818164,62.793457 138.75791,61.7332031 137.449805,61.7332031 Z" id="Shape" fill="#DB2E37"></path>
            <path d="M87.0996094,61.7332031 L62.9009766,61.7332031 C61.5925781,61.7332031 60.5326172,62.79375 60.5326172,64.1015625 L60.5326172,137.587793 C60.5326172,138.895898 61.5925781,139.956152 62.9009766,139.956152 L87.0996094,139.956152 C88.4077148,139.956152 89.4679688,138.895605 89.4679688,137.587793 L89.4679688,64.1018555 C89.4679688,62.793457 88.4074219,61.7332031 87.0996094,61.7332031 Z" id="Shape" fill="#FFDB57"></path>
            <path d="M87.0996094,61.7332031 L62.9009766,61.7332031 C61.5925781,61.7332031 60.5326172,62.79375 60.5326172,64.1015625 L60.5326172,73.5246094 L89.4679688,73.5246094 L89.4679688,64.1015625 C89.4679688,62.793457 88.4074219,61.7332031 87.0996094,61.7332031 Z" id="Shape" fill="#F5BA3D"></path>
            <path d="M132.83584,17.9818359 C130.513477,11.9288086 126.849316,6.01699219 123.033984,2.16708984 C121.633887,0.7546875 119.748633,0.038671875 117.602637,0.0846679687 C110.491699,0.250195312 98.9041992,9.17490234 83.1621094,26.6106445 C82.7689453,27.0457031 82.5512695,27.6114258 82.5512695,28.1979492 L82.5512695,40.7255859 C82.5512695,42.0336914 83.6112305,43.0939453 84.9196289,43.0939453 L121.351172,43.0939453 C129.46875,43.0939453 132.819141,39.1447266 134.199902,35.831543 C136.04209,31.4150391 135.557227,25.0754883 132.83584,17.9818359 Z" id="Shape" fill="#FFDB57"></path>
            <path d="M134.191699,22.1085937 C134.125488,21.8654297 134.020898,21.6342773 133.881738,21.4242187 C130.305469,16.0168945 122.577832,18.0401367 116.725195,20.6894531 C99.721582,28.3863281 92.699707,38.9885742 92.409082,39.4359375 C91.9359375,40.1645508 91.8996094,41.0929687 92.3141602,41.8561523 C92.728418,42.6193359 93.5270508,43.0942383 94.3954102,43.0942383 L121.352051,43.0942383 C126.517383,43.0942383 130.347949,41.5086914 132.737402,38.3818359 C135.575977,34.6669922 136.078711,29.0396484 134.191699,22.1085937 Z" id="Shape" fill="#EF9325"></path>
            <path d="M66.8375977,26.6109375 C51.0955078,9.17519531 39.5080078,0.250488281 32.3970703,0.0849609375 C30.2455078,0.038671875 28.3655273,0.754980469 26.9657227,2.16738281 C23.1506836,6.01699219 19.4862305,11.9291016 17.1641602,17.9821289 C14.4427734,25.0757812 13.9579102,31.4150391 15.7989258,35.8321289 C17.1799805,39.1453125 20.5300781,43.0945313 28.6479492,43.0945313 L65.0794922,43.0945313 C66.3878906,43.0945313 67.4478516,42.0339844 67.4478516,40.7261719 L67.4478516,28.1982422 C67.4481445,27.6117188 67.2310547,27.0459961 66.8375977,26.6109375 Z" id="Shape" fill="#FFDB57"></path>
            <path d="M57.5912109,39.4359375 C57.3005859,38.9885742 50.2787109,28.3860352 33.2750977,20.6894531 C27.421875,18.0401367 19.6945312,16.0177734 16.1182617,21.4239258 C15.9793945,21.6342773 15.8748047,21.8651367 15.8085937,22.1085937 C13.9209961,29.0396484 14.4243164,34.6669922 17.2628906,38.381543 C19.6520508,41.5083984 23.4826172,43.0939453 28.6482422,43.0939453 L55.6048828,43.0939453 C56.4732422,43.0939453 57.271875,42.619043 57.6861328,41.8558594 C58.1003906,41.0929687 58.0640625,40.1645508 57.5912109,39.4359375 Z" id="Shape" fill="#EF9325"></path>
            <path d="M84.9202148,23.4887695 L65.0797852,23.4887695 C63.7713867,23.4887695 62.7114258,24.5493164 62.7114258,25.8571289 L62.7114258,40.7261719 C62.7114258,42.0342773 63.7713867,43.0945313 65.0797852,43.0945313 L84.9202148,43.0945313 C86.2286133,43.0945313 87.2885742,42.0339844 87.2885742,40.7261719 L87.2885742,25.8571289 C87.2885742,24.5490234 86.2286133,23.4887695 84.9202148,23.4887695 Z" id="Shape" fill="#F5BA3D"></path>
            <path d="M147.631641,38.362207 L2.36835937,38.362207 C1.05996094,38.362207 0,39.4227539 0,40.7305664 L0,64.1015625 C0,65.409668 1.05996094,66.4699219 2.36835937,66.4699219 L147.631641,66.4699219 C148.940039,66.4699219 150,65.409375 150,64.1015625 L150,40.7305664 C150,39.4224609 148.940039,38.362207 147.631641,38.362207 Z" id="Shape" fill="#F7434C"></path>
            <rect id="Rectangle-path" fill="#FFDB57" x="56.8072266" y="38.3613281" width="36.3852539" height="28.1083008"></rect>
        </g>
    </g>
</svg>